HIERARCHY
ROOT mixamorig:Hips
{
	OFFSET -0.000008 104.274872 1.554316
	CHANNELS 6 Xposition Yposition Zposition Xrotation Yrotation Zrotation
	JOINT mixamorig:Spine
	{
		OFFSET -0.000005 10.181595 0.131519
		CHANNELS 6 Xposition Yposition Zposition Xrotation Yrotation Zrotation
		JOINT mixamorig:Spine1
		{
			OFFSET -0.000000 9.893959 -1.470707
			CHANNELS 6 Xposition Yposition Zposition Xrotation Yrotation Zrotation
			JOINT mixamorig:Spine2
			{
				OFFSET -0.000000 9.220757 -1.370641
				CHANNELS 6 Xposition Yposition Zposition Xrotation Yrotation Zrotation
				JOINT mixamorig:Neck
				{
					OFFSET 0.000001 16.740417 -2.049036
					CHANNELS 6 Xposition Yposition Zposition Xrotation Yrotation Zrotation
					JOINT mixamorig:Head
					{
						OFFSET 0.000000 9.617874 1.685006
						CHANNELS 6 Xposition Yposition Zposition Xrotation Yrotation Zrotation
						JOINT mixamorig:HeadTop_End
						{
							OFFSET 0.000002 22.037354 7.501101
							CHANNELS 6 Xposition Yposition Zposition Xrotation Yrotation Zrotation
							End Site
							{
								OFFSET 0.000168 2310.654297 -282.823242
							}
						}
					}
				}
				JOINT mixamorig:RightShoulder
				{
					OFFSET -4.569970 11.014908 -2.160885
					CHANNELS 6 Xposition Yposition Zposition Xrotation Yrotation Zrotation
					JOINT mixamorig:RightArm
					{
						OFFSET -10.592851 -0.524811 -2.232101
						CHANNELS 6 Xposition Yposition Zposition Xrotation Yrotation Zrotation
						JOINT mixamorig:RightForeArm
						{
							OFFSET -27.841511 0.000031 -0.000004
							CHANNELS 6 Xposition Yposition Zposition Xrotation Yrotation Zrotation
							JOINT mixamorig:RightHand
							{
								OFFSET -28.328831 -0.000015 0.000015
								CHANNELS 6 Xposition Yposition Zposition Xrotation Yrotation Zrotation
								JOINT mixamorig:RightHandThumb1
								{
									OFFSET -2.464806 -1.573990 2.681852
									CHANNELS 6 Xposition Yposition Zposition Xrotation Yrotation Zrotation
									JOINT mixamorig:RightHandThumb2
									{
										OFFSET -3.215179 -1.872803 1.924282
										CHANNELS 6 Xposition Yposition Zposition Xrotation Yrotation Zrotation
										JOINT mixamorig:RightHandThumb3
										{
											OFFSET -2.654831 -1.527969 1.512609
											CHANNELS 6 Xposition Yposition Zposition Xrotation Yrotation Zrotation
											JOINT mixamorig:RightHandThumb4
											{
												OFFSET -2.018814 -1.152008 1.108052
												CHANNELS 6 Xposition Yposition Zposition Xrotation Yrotation Zrotation
												End Site
												{
													OFFSET -188.809540 -114.533607 132.431396
												}
											}
										}
									}
								}
								JOINT mixamorig:RightHandIndex1
								{
									OFFSET -9.108284 -0.517868 2.259835
									CHANNELS 6 Xposition Yposition Zposition Xrotation Yrotation Zrotation
									JOINT mixamorig:RightHandIndex2
									{
										OFFSET -3.699989 0.000000 0.001215
										CHANNELS 6 Xposition Yposition Zposition Xrotation Yrotation Zrotation
										JOINT mixamorig:RightHandIndex3
										{
											OFFSET -2.850006 0.000031 -0.000522
											CHANNELS 6 Xposition Yposition Zposition Xrotation Yrotation Zrotation
											JOINT mixamorig:RightHandIndex4
											{
												OFFSET -2.772186 -0.000015 -0.000020
												CHANNELS 6 Xposition Yposition Zposition Xrotation Yrotation Zrotation
												End Site
												{
													OFFSET -277.218445 0.000000 -0.050231
												}
											}
										}
									}
								}
								JOINT mixamorig:RightHandMiddle1
								{
									OFFSET -9.532516 -0.000031 -0.000023
									CHANNELS 6 Xposition Yposition Zposition Xrotation Yrotation Zrotation
									JOINT mixamorig:RightHandMiddle2
									{
										OFFSET -3.700005 -0.000015 0.003713
										CHANNELS 6 Xposition Yposition Zposition Xrotation Yrotation Zrotation
										JOINT mixamorig:RightHandMiddle3
										{
											OFFSET -2.949974 0.000015 -0.002054
											CHANNELS 6 Xposition Yposition Zposition Xrotation Yrotation Zrotation
											JOINT mixamorig:RightHandMiddle4
											{
												OFFSET -2.946640 0.000000 -0.000156
												CHANNELS 6 Xposition Yposition Zposition Xrotation Yrotation Zrotation
												End Site
												{
													OFFSET -294.664337 0.000000 -0.113670
												}
											}
										}
									}
								}
								JOINT mixamorig:RightHandRing1
								{
									OFFSET -9.103600 -0.043076 -1.865134
									CHANNELS 6 Xposition Yposition Zposition Xrotation Yrotation Zrotation
									JOINT mixamorig:RightHandRing2
									{
										OFFSET -3.379288 0.000000 -0.001055
										CHANNELS 6 Xposition Yposition Zposition Xrotation Yrotation Zrotation
										JOINT mixamorig:RightHandRing3
										{
											OFFSET -2.889687 -0.000015 0.000379
											CHANNELS 6 Xposition Yposition Zposition Xrotation Yrotation Zrotation
											JOINT mixamorig:RightHandRing4
											{
												OFFSET -2.638809 -0.000015 0.000941
												CHANNELS 6 Xposition Yposition Zposition Xrotation Yrotation Zrotation
												End Site
												{
													OFFSET -263.880371 0.000000 0.516020
												}
											}
										}
									}
								}
								JOINT mixamorig:RightHandPinky1
								{
									OFFSET -8.076683 -0.486710 -3.806280
									CHANNELS 6 Xposition Yposition Zposition Xrotation Yrotation Zrotation
									JOINT mixamorig:RightHandPinky2
									{
										OFFSET -3.600014 -0.000015 -0.003747
										CHANNELS 6 Xposition Yposition Zposition Xrotation Yrotation Zrotation
										JOINT mixamorig:RightHandPinky3
										{
											OFFSET -2.099983 0.000000 -0.005739
											CHANNELS 6 Xposition Yposition Zposition Xrotation Yrotation Zrotation
											JOINT mixamorig:RightHandPinky4
											{
												OFFSET -2.115768 -0.000031 -0.003680
												CHANNELS 6 Xposition Yposition Zposition Xrotation Yrotation Zrotation
												End Site
												{
													OFFSET -211.577087 0.000000 -0.350686
												}
											}
										}
									}
								}
							}
						}
					}
				}
				JOINT mixamorig:LeftShoulder
				{
					OFFSET 4.570447 11.014725 -2.160855
					CHANNELS 6 Xposition Yposition Zposition Xrotation Yrotation Zrotation
					JOINT mixamorig:LeftArm
					{
						OFFSET 10.592371 -0.524597 -2.232119
						CHANNELS 6 Xposition Yposition Zposition Xrotation Yrotation Zrotation
						JOINT mixamorig:LeftForeArm
						{
							OFFSET 27.841532 -0.000031 0.000026
							CHANNELS 6 Xposition Yposition Zposition Xrotation Yrotation Zrotation
							JOINT mixamorig:LeftHand
							{
								OFFSET 28.328846 -0.000061 0.000022
								CHANNELS 6 Xposition Yposition Zposition Xrotation Yrotation Zrotation
								JOINT mixamorig:LeftHandThumb1
								{
									OFFSET 2.466141 -1.576172 2.681732
									CHANNELS 6 Xposition Yposition Zposition Xrotation Yrotation Zrotation
									JOINT mixamorig:LeftHandThumb2
									{
										OFFSET 3.217812 -1.872070 1.916482
										CHANNELS 6 Xposition Yposition Zposition Xrotation Yrotation Zrotation
										JOINT mixamorig:LeftHandThumb3
										{
											OFFSET 2.656029 -1.528778 1.514513
											CHANNELS 6 Xposition Yposition Zposition Xrotation Yrotation Zrotation
											JOINT mixamorig:LeftHandThumb4
											{
												OFFSET 2.020889 -1.154053 1.115139
												CHANNELS 6 Xposition Yposition Zposition Xrotation Yrotation Zrotation
												End Site
												{
													OFFSET 190.885437 -115.081749 130.048782
												}
											}
										}
									}
								}
								JOINT mixamorig:LeftHandIndex1
								{
									OFFSET 9.109314 -0.518021 2.259871
									CHANNELS 6 Xposition Yposition Zposition Xrotation Yrotation Zrotation
									JOINT mixamorig:LeftHandIndex2
									{
										OFFSET 3.699989 0.000000 -0.000322
										CHANNELS 6 Xposition Yposition Zposition Xrotation Yrotation Zrotation
										JOINT mixamorig:LeftHandIndex3
										{
											OFFSET 2.850006 0.000000 0.000352
											CHANNELS 6 Xposition Yposition Zposition Xrotation Yrotation Zrotation
											JOINT mixamorig:LeftHandIndex4
											{
												OFFSET 2.774864 -0.000031 -0.000027
												CHANNELS 6 Xposition Yposition Zposition Xrotation Yrotation Zrotation
												End Site
												{
													OFFSET 277.486267 0.000000 -0.009857
												}
											}
										}
									}
								}
								JOINT mixamorig:LeftHandMiddle1
								{
									OFFSET 9.533394 0.000061 0.000044
									CHANNELS 6 Xposition Yposition Zposition Xrotation Yrotation Zrotation
									JOINT mixamorig:LeftHandMiddle2
									{
										OFFSET 3.699989 -0.000015 -0.000231
										CHANNELS 6 Xposition Yposition Zposition Xrotation Yrotation Zrotation
										JOINT mixamorig:LeftHandMiddle3
										{
											OFFSET 2.949997 -0.000015 -0.000059
											CHANNELS 6 Xposition Yposition Zposition Xrotation Yrotation Zrotation
											JOINT mixamorig:LeftHandMiddle4
											{
												OFFSET 2.952896 0.000031 0.000063
												CHANNELS 6 Xposition Yposition Zposition Xrotation Yrotation Zrotation
												End Site
												{
													OFFSET 295.289337 0.000000 0.022810
												}
											}
										}
									}
								}
								JOINT mixamorig:LeftHandRing1
								{
									OFFSET 9.104523 -0.042999 -1.865074
									CHANNELS 6 Xposition Yposition Zposition Xrotation Yrotation Zrotation
									JOINT mixamorig:LeftHandRing2
									{
										OFFSET 3.150009 -0.000031 0.000043
										CHANNELS 6 Xposition Yposition Zposition Xrotation Yrotation Zrotation
										JOINT mixamorig:LeftHandRing3
										{
											OFFSET 2.949982 -0.000015 0.000040
											CHANNELS 6 Xposition Yposition Zposition Xrotation Yrotation Zrotation
											JOINT mixamorig:LeftHandRing4
											{
												OFFSET 2.644348 0.000000 0.000057
												CHANNELS 6 Xposition Yposition Zposition Xrotation Yrotation Zrotation
												End Site
												{
													OFFSET 264.434631 0.000000 0.012105
												}
											}
										}
									}
								}
								JOINT mixamorig:LeftHandPinky1
								{
									OFFSET 8.077789 -0.486847 -3.806259
									CHANNELS 6 Xposition Yposition Zposition Xrotation Yrotation Zrotation
									JOINT mixamorig:LeftHandPinky2
									{
										OFFSET 3.599953 0.000031 0.014727
										CHANNELS 6 Xposition Yposition Zposition Xrotation Yrotation Zrotation
										JOINT mixamorig:LeftHandPinky3
										{
											OFFSET 2.100021 0.000015 0.007705
											CHANNELS 6 Xposition Yposition Zposition Xrotation Yrotation Zrotation
											JOINT mixamorig:LeftHandPinky4
											{
												OFFSET 2.125504 0.000031 0.007517
												CHANNELS 6 Xposition Yposition Zposition Xrotation Yrotation Zrotation
												End Site
												{
													OFFSET 212.550781 0.000000 0.625752
												}
											}
										}
									}
								}
							}
						}
					}
				}
			}
		}
	}
	JOINT mixamorig:RightUpLeg
	{
		OFFSET -8.207787 -6.751648 -1.599560
		CHANNELS 6 Xposition Yposition Zposition Xrotation Yrotation Zrotation
		JOINT mixamorig:RightLeg
		{
			OFFSET -0.000002 -44.370117 0.345942
			CHANNELS 6 Xposition Yposition Zposition Xrotation Yrotation Zrotation
			JOINT mixamorig:RightFoot
			{
				OFFSET 0.000003 -44.423679 -3.043532
				CHANNELS 6 Xposition Yposition Zposition Xrotation Yrotation Zrotation
				JOINT mixamorig:RightToeBase
				{
					OFFSET -0.000002 -8.728671 10.710558
					CHANNELS 6 Xposition Yposition Zposition Xrotation Yrotation Zrotation
					JOINT mixamorig:RightToe_End
					{
						OFFSET -0.000001 -0.000679 9.278119
						CHANNELS 6 Xposition Yposition Zposition Xrotation Yrotation Zrotation
						End Site
						{
							OFFSET 0.000000 -0.067690 927.812134
						}
					}
				}
			}
		}
	}
	JOINT mixamorig:LeftUpLeg
	{
		OFFSET 8.207793 -6.751686 -1.599556
		CHANNELS 6 Xposition Yposition Zposition Xrotation Yrotation Zrotation
		JOINT mixamorig:LeftLeg
		{
			OFFSET -0.000004 -44.370014 0.346954
			CHANNELS 6 Xposition Yposition Zposition Xrotation Yrotation Zrotation
			JOINT mixamorig:LeftFoot
			{
				OFFSET -0.000001 -44.423672 -3.044401
				CHANNELS 6 Xposition Yposition Zposition Xrotation Yrotation Zrotation
				JOINT mixamorig:LeftToeBase
				{
					OFFSET -0.000002 -8.728669 10.710558
					CHANNELS 6 Xposition Yposition Zposition Xrotation Yrotation Zrotation
					JOINT mixamorig:LeftToe_End
					{
						OFFSET -0.000003 -0.000679 9.278133
						CHANNELS 6 Xposition Yposition Zposition Xrotation Yrotation Zrotation
						End Site
						{
							OFFSET 0.000000 -0.068021 927.813477
						}
					}
				}
			}
		}
	}
}
MOTION
Frames: 3
Frame Time: 0.033333
0.000006 104.270477 1.554256 0.000010 0.000003 -0.000113 -0.000005 10.181587 0.131522 0.000001 -0.000003 0.000084 -0.000000 9.893967 -1.470711 0.000001 0.000000 -0.000000 -0.000000 9.220802 -1.370642 0.000000 -0.000000 -0.000000 0.000001 16.740433 -2.049030 0.000000 -0.000000 -0.000000 0.000000 9.617859 1.685014 0.000000 0.000000 0.000000 0.000002 22.037384 7.501101 0.000000 -0.000000 0.000000 -4.569968 11.014880 -2.160881 0.000008 0.000001 -0.000038 -10.592880 -0.524756 -2.231924 75.575155 26.406618 -20.618765 -27.841515 0.000011 0.000545 -53.964993 109.729257 71.770214 -28.328829 0.000019 0.000024 -0.000317 -0.000044 0.000007 -2.464445 -1.573773 2.682338 -47.154099 -166.431711 -7.718535 -3.215264 -1.872577 1.924660 156.293320 32.290894 6.479135 -2.654928 -1.527901 1.513097 150.944872 25.183181 -44.333593 -2.018831 -1.151998 1.108065 -0.000003 -0.000002 0.000004 -9.108397 -0.517559 2.260086 90.806600 17.492941 -17.784879 -3.700079 0.000310 0.001480 85.682988 16.486133 -15.280559 -2.850091 0.000345 -0.000310 84.211854 13.123090 -11.868711 -2.772163 -0.000015 -0.000020 -0.000003 0.000000 -0.000000 -9.532597 0.000275 0.000233 91.795810 14.501262 -15.102431 -3.700079 0.000333 0.003956 89.146878 12.404984 -12.129407 -2.950056 0.000332 -0.001857 87.370735 11.400686 -10.885533 -2.946633 0.000001 -0.000154 0.000006 -0.000000 0.000000 -9.103703 -0.042746 -1.864873 90.871104 15.580722 -15.771783 -3.379336 0.000322 -0.000812 91.442955 9.326128 -9.580624 -2.889744 0.000343 0.000624 91.246082 6.368422 -6.554320 -2.638815 0.000001 0.000940 -0.000003 0.000001 -0.000001 -8.076740 -0.486383 -3.806026 87.251145 15.632309 -14.766360 -3.600036 0.000288 -0.003534 87.785539 6.958190 -6.359985 -2.100005 0.000319 -0.005511 85.826313 3.524294 -3.078894 -2.115777 -0.000053 -0.003677 0.000001 -0.000000 -0.000003 4.570446 11.014691 -2.160851 -0.000018 0.000010 -0.000021 10.592396 -0.524487 -2.232357 72.770557 -11.566166 8.536067 27.841827 0.000070 -0.000191 101.649594 -69.972406 81.315943 28.328846 -0.000029 0.000029 0.000021 -0.000089 -0.000000 2.465891 -1.576091 2.681891 -51.266976 173.222722 20.801804 3.217821 -1.871773 1.916374 155.039529 -29.460102 9.395391 2.656094 -1.528625 1.514456 137.568466 -28.490888 44.855857 2.020898 -1.154048 1.115150 0.000005 0.000000 0.000003 9.109365 -0.517876 2.259710 78.129585 -15.498119 12.595255 3.700027 0.000111 -0.000466 74.304952 -16.826234 12.802449 2.850045 0.000155 0.000209 70.735666 -13.717449 9.759054 2.774874 -0.000033 -0.000025 -0.000000 0.000002 -0.000001 9.533447 0.000195 -0.000113 78.523796 -12.825825 10.491055 3.700045 0.000150 -0.000382 80.569929 -14.494326 12.301643 2.950072 0.000125 -0.000180 78.657988 -18.307619 15.044614 2.952880 -0.000031 0.000064 -0.000000 -0.000001 0.000000 9.104563 -0.042864 -1.865233 77.272327 -11.659266 9.332642 3.150030 0.000195 -0.000105 81.656592 -13.435380 11.623769 2.950023 0.000118 -0.000073 79.480739 -16.146717 13.453470 2.644323 0.000016 0.000060 0.000000 -0.000002 0.000001 8.077826 -0.486741 -3.806412 68.443816 -13.327539 9.480880 3.600003 0.000155 0.014557 70.218593 -12.262995 8.997733 2.100035 0.000152 0.007551 72.799763 -12.562054 9.640643 2.125504 -0.000029 0.007516 -0.000001 -0.000001 0.000000 -8.207786 -6.751667 -1.599560 -0.077001 -0.000003 0.000080 -0.000002 -44.370110 0.345938 0.153719 -0.000000 -0.000000 0.000000 -44.423679 -3.043532 -0.076700 0.000000 -0.000002 -0.000006 -8.728667 10.710559 -0.000009 -0.000000 -0.000000 -0.000001 -0.000679 9.278123 0.000000 -0.000000 -0.000000 8.207792 -6.751710 -1.599556 -0.074518 -0.000003 0.000081 -0.000002 -44.370014 0.346960 0.148822 0.000002 0.000000 -0.000001 -44.423664 -3.044403 -0.074314 0.000000 -0.000002 -0.000004 -8.728671 10.710558 0.000007 -0.000000 -0.000000 0.000000 -0.000680 9.278137 -0.000000 0.000000 -0.000001 
0.000006 104.270477 1.554256 0.000010 0.000003 -0.000113 -0.000005 10.181587 0.131522 0.000001 -0.000003 0.000084 -0.000000 9.893967 -1.470711 0.000001 0.000000 -0.000000 -0.000000 9.220802 -1.370642 0.000000 -0.000000 -0.000000 0.000001 16.740433 -2.049030 0.000000 -0.000000 -0.000000 0.000000 9.617859 1.685014 0.000000 0.000000 0.000000 0.000002 22.037384 7.501101 0.000000 -0.000000 0.000000 -4.569968 11.014880 -2.160881 0.000008 0.000001 -0.000038 -10.592854 -0.524800 -2.231832 75.969687 42.784339 -34.016972 -27.841526 0.000018 0.000543 -50.008811 103.501538 61.220755 -28.328838 -0.000005 0.000028 -0.000323 -0.000046 0.000008 -2.464418 -1.573729 2.682306 -51.037137 -166.866931 -18.464721 -3.215272 -1.872558 1.924621 150.306044 32.529906 15.019723 -2.654948 -1.527880 1.513073 147.845291 27.303159 -31.727578 -2.018827 -1.152018 1.108071 -0.000001 -0.000003 0.000002 -9.108370 -0.517542 2.260085 92.154073 16.504276 -17.176017 -3.700081 0.000304 0.001468 86.719565 15.722605 -14.834416 -2.850097 0.000349 -0.000300 85.422451 12.542285 -11.584192 -2.772165 0.000000 -0.000020 0.000001 0.000000 0.000001 -9.532585 0.000277 0.000221 90.670058 14.898365 -15.213992 -3.700076 0.000318 0.003962 90.309103 13.456693 -13.432211 -2.950066 0.000319 -0.001822 91.960438 12.104615 -12.515369 -2.946616 0.000001 -0.000158 0.000002 -0.000000 -0.000000 -9.103688 -0.042747 -1.864891 89.894176 16.664244 -16.589541 -3.379351 0.000316 -0.000811 90.312156 10.484947 -10.559519 -2.889749 0.000349 0.000627 95.383476 7.213768 -7.973562 -2.638789 -0.000016 0.000941 -0.000003 -0.000000 0.000001 -8.076756 -0.486385 -3.806033 84.921374 17.711983 -16.089421 -3.600045 0.000281 -0.003540 85.985217 8.076109 -7.201061 -2.100003 0.000330 -0.005496 88.583196 4.081152 -3.772350 -2.115770 -0.000040 -0.003679 -0.000005 0.000001 0.000001 4.570446 11.014691 -2.160851 -0.000018 0.000010 -0.000021 10.592445 -0.524475 -2.232390 71.087216 -29.381165 21.217829 27.841822 0.000034 -0.000193 106.417954 -75.021842 91.495609 28.328814 -0.000027 0.000025 0.000017 -0.000089 0.000001 2.466141 -1.576154 2.681882 -19.396410 162.181585 -54.045907 3.217866 -1.871810 1.916408 161.819940 -23.410665 36.485259 2.656115 -1.528692 1.514484 138.728751 -27.747644 58.696911 2.020894 -1.154052 1.115146 -0.000004 0.000005 0.000008 9.109367 -0.517886 2.259723 79.063695 -19.672354 16.275168 3.700049 0.000135 -0.000473 76.034205 -14.449752 11.333211 2.850061 0.000172 0.000206 74.957583 -11.542067 8.861096 2.774887 -0.000046 -0.000026 0.000001 -0.000002 0.000000 9.533455 0.000179 -0.000079 78.115166 -19.213915 15.633523 3.700058 0.000169 -0.000388 80.599914 -13.205675 11.210816 2.950042 0.000161 -0.000195 80.880990 -11.646645 9.938111 2.952872 -0.000030 0.000064 0.000002 0.000001 0.000001 9.104579 -0.042874 -1.865234 77.735804 -18.866938 15.256057 3.150051 0.000181 -0.000105 82.166158 -13.978069 12.202692 2.950016 0.000162 -0.000095 82.961930 -10.744801 9.507451 2.644317 0.000015 0.000058 -0.000000 0.000001 0.000000 8.077844 -0.486745 -3.806398 72.735613 -20.685807 15.768228 3.600012 0.000141 0.014592 72.554620 -17.623855 13.380630 2.100023 0.000162 0.007530 74.807449 -11.958091 9.529658 2.125518 -0.000015 0.007513 0.000000 0.000001 0.000000 -8.207786 -6.751667 -1.599560 -0.077001 -0.000003 0.000080 -0.000002 -44.370110 0.345938 0.153719 -0.000000 -0.000000 0.000000 -44.423679 -3.043532 -0.076700 0.000000 -0.000002 -0.000006 -8.728667 10.710559 -0.000009 -0.000000 -0.000000 -0.000001 -0.000679 9.278123 0.000000 -0.000000 -0.000000 8.207792 -6.751710 -1.599556 -0.074518 -0.000003 0.000081 -0.000002 -44.370014 0.346960 0.148822 0.000002 0.000000 -0.000001 -44.423664 -3.044403 -0.074314 0.000000 -0.000002 -0.000004 -8.728671 10.710558 0.000007 -0.000000 -0.000000 0.000000 -0.000680 9.278137 -0.000000 0.000000 -0.000001 
0.000006 104.270477 1.554256 0.000010 0.000003 -0.000113 -0.000005 10.181587 0.131522 0.000001 -0.000003 0.000084 -0.000000 9.893967 -1.470711 0.000001 0.000000 -0.000000 -0.000000 9.220802 -1.370642 0.000000 -0.000000 -0.000000 0.000001 16.740433 -2.049030 0.000000 -0.000000 -0.000000 0.000000 9.617859 1.685014 0.000000 0.000000 0.000000 0.000002 22.037384 7.501101 0.000000 -0.000000 0.000000 -4.569968 11.014880 -2.160881 0.000008 0.000001 -0.000038 -10.592857 -0.524795 -2.231839 75.749346 41.499051 -32.836606 -27.841534 -0.000004 0.000566 -48.016124 102.100236 57.709846 -28.328833 0.000023 0.000033 -0.000323 -0.000047 0.000009 -2.464421 -1.573913 2.682363 -30.694532 -148.508325 22.705478 -3.215189 -1.872467 1.924613 144.414993 34.068174 44.615759 -2.654972 -1.527889 1.513072 152.750692 27.223257 -26.823157 -2.018823 -1.151996 1.108056 -0.000005 0.000005 0.000007 -9.108396 -0.517577 2.260145 101.500586 18.933419 -23.128013 -3.700075 0.000305 0.001516 96.019646 14.781282 -16.374200 -2.850070 0.000371 -0.000272 93.695032 10.606621 -11.308278 -2.772170 -0.000001 -0.000022 0.000001 -0.000002 -0.000001 -9.532589 0.000278 0.000229 94.839560 12.905679 -14.183430 -3.700065 0.000330 0.003978 94.352315 10.017912 -10.705229 -2.950041 0.000329 -0.001825 93.760233 10.112363 -10.787417 -2.946616 0.000002 -0.000153 -0.000000 -0.000001 -0.000000 -9.103688 -0.042741 -1.864863 93.338654 14.390961 -15.199054 -3.379348 0.000298 -0.000798 93.247361 10.102981 -10.707578 -2.889731 0.000347 0.000633 96.678719 7.676784 -8.676441 -2.638804 -0.000002 0.000943 -0.000003 -0.000002 -0.000002 -8.076735 -0.486362 -3.806034 86.884214 14.354928 -13.462942 -3.600038 0.000285 -0.003526 88.383666 7.186477 -6.647564 -2.100002 0.000326 -0.005491 91.502665 5.410504 -5.329658 -2.115769 -0.000053 -0.003673 -0.000000 0.000000 -0.000003 4.570446 11.014691 -2.160851 -0.000018 0.000010 -0.000021 10.592451 -0.524479 -2.232395 69.706855 -32.029814 22.607436 27.841820 0.000046 -0.000185 108.008315 -75.800558 93.962250 28.328835 -0.000045 0.000022 0.000026 -0.000089 -0.000001 2.466257 -1.575979 2.681815 17.081009 176.664960 -119.806682 3.217860 -1.871868 1.916427 161.084110 -21.286016 45.817080 2.656126 -1.528668 1.514471 138.086317 -28.136182 53.377129 2.020880 -1.154066 1.115155 0.000004 0.000004 0.000004 9.109373 -0.517900 2.259757 77.209701 -24.186053 19.404038 3.700041 0.000138 -0.000453 79.867922 -17.603230 14.785968 2.850064 0.000196 0.000215 83.945108 -14.769495 13.298526 2.774886 -0.000031 -0.000025 -0.000002 -0.000001 0.000001 9.533446 0.000176 -0.000082 75.584615 -19.228627 14.959769 3.700050 0.000154 -0.000377 81.191729 -12.479161 10.703278 2.950043 0.000154 -0.000203 83.548377 -12.158178 10.871666 2.952881 -0.000014 0.000063 -0.000000 0.000000 -0.000000 9.104568 -0.042885 -1.865208 77.549305 -19.922881 16.062766 3.150056 0.000162 -0.000065 79.351055 -16.786933 13.957332 2.950003 0.000139 -0.000076 81.152476 -12.580314 10.786652 2.644318 0.000029 0.000057 0.000001 -0.000000 -0.000000 8.077828 -0.486763 -3.806366 66.538596 -22.347261 15.191275 3.600015 0.000102 0.014582 64.641757 -20.726390 13.560918 2.100030 0.000134 0.007573 68.578849 -15.398487 10.882880 2.125504 0.000002 0.007513 0.000000 0.000001 -0.000000 -8.207786 -6.751667 -1.599560 -0.077001 -0.000003 0.000080 -0.000002 -44.370110 0.345938 0.153719 -0.000000 -0.000000 0.000000 -44.423679 -3.043532 -0.076700 0.000000 -0.000002 -0.000006 -8.728667 10.710559 -0.000009 -0.000000 -0.000000 -0.000001 -0.000679 9.278123 0.000000 -0.000000 -0.000000 8.207792 -6.751710 -1.599556 -0.074518 -0.000003 0.000081 -0.000002 -44.370014 0.346960 0.148822 0.000002 0.000000 -0.000001 -44.423664 -3.044403 -0.074314 0.000000 -0.000002 -0.000004 -8.728671 10.710558 0.000007 -0.000000 -0.000000 0.000000 -0.000680 9.278137 -0.000000 0.000000 -0.000001 
